<svg id="Layer_1" height="512" viewBox="0 0 512 512" width="512" xmlns="http://www.w3.org/2000/svg" data-name="Layer 1"><path d="m246.14 73.73c-92.9 0-168.48 75.58-168.48 168.48a168.5 168.5 0 0 0 126.13 163.12 13.872 13.872 0 0 1 10.36 13.55l-.14 18.9-.36 47.44a15.648 15.648 0 0 0 25.061 12.632 15.643 15.643 0 0 1 -7.14-13.727l1.821-47.406.722-18.887a13.874 13.874 0 0 0 -9.937-13.863 168.493 168.493 0 0 1 -121.046-166.928c2.543-82.515 64.321-149.515 143.209-161.408v-1.263l-.02-.64z" fill="#d4e1f4"/><g fill="#0635c9"><path d="m182.558 171.347a50.985 50.985 0 1 0 0 72.1 50.986 50.986 0 0 0 0-72.1zm-8.486 63.618a38.985 38.985 0 1 1 11.418-27.565 38.725 38.725 0 0 1 -11.419 27.565z"/><path d="m162.657 182.763-6.592 6.591a6 6 0 1 0 8.485 8.485l6.592-6.591a6 6 0 1 0 -8.485-8.485z"/><path d="m128.462 216.958-6.592 6.591a6 6 0 1 0 8.484 8.486l6.592-6.592a6 6 0 1 0 -8.484-8.485z"/><path d="m164.55 216.958a6 6 0 0 0 -8.485 8.485l6.592 6.592a6 6 0 0 0 8.485-8.486z"/><path d="m130.354 182.763a6 6 0 1 0 -8.484 8.485l6.592 6.591a6 6 0 1 0 8.484-8.485z"/><path d="m319 339.352a6 6 0 0 0 -6 6v9.322a6 6 0 0 0 12 0v-9.322a6 6 0 0 0 -6-6z"/><path d="m299.9 368h-9.322a6 6 0 0 0 0 12h9.322a6 6 0 0 0 0-12z"/><path d="m232.021 208.472a6 6 0 0 0 -8.47-.5l-9.672 8.6a6 6 0 1 0 7.973 8.969l9.671-8.6a6 6 0 0 0 .498-8.469z"/><path d="m186.621 338.389 10.747 4.3a6 6 0 1 0 4.457-11.142l-10.747-4.3a6 6 0 1 0 -4.457 11.141z"/><path d="m286.649 292.523-7.522 15.045a6 6 0 1 0 10.732 5.366l7.523-15.045a6 6 0 1 0 -10.733-5.366z"/><path d="m119.8 293.188-5.374 15.045a6 6 0 1 0 11.3 4.036l5.374-15.045a6 6 0 0 0 -11.3-4.036z"/><path d="m196.156 130.328a6 6 0 1 0 6.881-9.831l-10.747-7.523a6 6 0 0 0 -6.881 9.831z"/><path d="m213.129 384.861a6 6 0 0 0 8.42 1.053l9.672-7.523a6 6 0 0 0 -7.367-9.473l-9.672 7.523a6 6 0 0 0 -1.053 8.42z"/><path d="m213.852 278.925a6 6 0 0 0 -.447 8.473l9.672 10.747a6 6 0 0 0 8.92-8.027l-9.672-10.747a6 6 0 0 0 -8.473-.446z"/><path d="m147.963 49.644a5.991 5.991 0 0 0 2.665-.628c4.972-2.471 10.092-4.771 15.218-6.839a6 6 0 0 0 -4.489-11.129c-5.414 2.183-10.82 4.613-16.069 7.221a6 6 0 0 0 2.675 11.375z"/><path d="m129.37 61.131a6 6 0 1 0 -6.523-10.072 228.9 228.9 0 0 0 -93.926 123.3 6 6 0 1 0 11.451 3.59 216.863 216.863 0 0 1 88.998-116.818z"/><path d="m41.571 242.391a204.491 204.491 0 0 0 155.885 198.609c3.394.827 6.913 1.5 10.513 2.054l-.315 42.136a21.665 21.665 0 0 0 43.322.684l.962-39.168c109.908-3.078 198.42-93.272 198.77-203.831a21.789 21.789 0 0 0 -6.72-16.075 20.9 20.9 0 0 0 -15.467-5.6 21.379 21.379 0 0 0 -18.899 14.8h-59.622v12h58.506a161.434 161.434 0 0 1 -43 104.316 51 51 0 1 0 -88.943 49.511 162.164 162.164 0 0 1 -17.682 2.371 19.866 19.866 0 0 0 -18.381 19.357l-1.516 61.7a9.874 9.874 0 0 1 -9.405 9.745 9.665 9.665 0 0 1 -9.925-9.733l.5-66.335a19.832 19.832 0 0 0 -14.862-19.406 162.5 162.5 0 0 1 -107.872-222.7 5.959 5.959 0 0 0 -1.484-6.836l-.021-.017a5.99 5.99 0 0 0 -9.485 2.027 174.486 174.486 0 0 0 115.859 239.14 7.849 7.849 0 0 1 5.86 7.7l-.089 12.049c-2.654-.45-5.248-.982-7.764-1.595a192.594 192.594 0 0 1 -146.725-186.9c0-105.907 86.156-192.394 192.055-192.394h.026c5.057 0 9.328 3.7 9.526 8.477a8.8 8.8 0 0 1 -2.608 6.663 9.394 9.394 0 0 1 -6.712 2.639 174.266 174.266 0 0 0 -137.858 68 5.988 5.988 0 0 0 .756 8.109 5.811 5.811 0 0 0 8.6-.843 161.87 161.87 0 0 1 122.644-63.197v155.715a12.75 12.75 0 0 0 12.791 12.437h70.209v-12h-70.209c-.247 0-.791-.19-.791-.437v-156.837a19.254 19.254 0 0 0 9.485-5.814 20.528 20.528 0 0 0 5.6-14.929c-.471-11.315-9.829-19.983-21.431-19.983h-.054c-112.5 0-204.029 91.887-204.029 204.391zm238.863 131.8a38.992 38.992 0 0 1 75.866-12.658c-2.5 2.31-5.057 4.443-7.678 6.581-.122-.007-.242-.114-.365-.114h-9.322a6.1 6.1 0 0 0 -4.27 10.357 161.554 161.554 0 0 1 -45.412 20.5 38.664 38.664 0 0 1 -8.819-24.665zm-27.934 49.66a7.9 7.9 0 0 1 7.314-7.689 174.708 174.708 0 0 0 160.805-173.685 9.3 9.3 0 0 1 8.54-9.3c.168-.009.336-.014.5-.014a9.045 9.045 0 0 1 9.047 9.045c0 104.148-83.1 189.251-186.476 192.475z"/></g><path d="m278.785 5a20.891 20.891 0 0 0 -20.836 21.045 20.767 20.767 0 0 0 15.051 20.11v159.318c0 5.679 4.2 10.527 9.881 10.527h25.953c4.306 0 8.166 3.274 8.166 7.581v58.729a19.5 19.5 0 0 0 39 0v-58.729a7.219 7.219 0 0 1 7.318-7.581h78.882c2.654 8 10.663 14.729 20.11 14.729a21.119 21.119 0 0 0 21.045-21.1c-.001-112.802-91.77-204.629-204.57-204.629zm65.215 218.581v58.729a7.5 7.5 0 0 1 -15 0v-58.729c0-10.923-9.243-19.581-20.166-19.581h-23.834v-156.8c85 3 153.152 71.8 156.149 156.8h-77.831a19.224 19.224 0 0 0 -19.318 19.581zm118.309-4.967a9.055 9.055 0 0 1 -9.045-9.045c0-96.208-78.271-174.479-174.479-174.479a9.045 9.045 0 0 1 0-18.09c106.183 0 192.569 86.386 192.569 192.569a9.055 9.055 0 0 1 -9.045 9.045z" fill="#1ae5be"/><path d="m337.688 75.889a43.613 43.613 0 1 0 43.612 43.611 43.663 43.663 0 0 0 -43.612-43.611zm0 75.225a31.613 31.613 0 1 1 31.612-31.614 31.649 31.649 0 0 1 -31.612 31.614z" fill="#1ae5be"/><path d="m338 92.612a6 6 0 0 0 -6 6v7.794a6 6 0 0 0 12 0v-7.794a6 6 0 0 0 -6-6z" fill="#1ae5be"/><path d="m338 126.6a6 6 0 0 0 -6 6v7.794a6 6 0 0 0 12 0v-7.794a6 6 0 0 0 -6-6z" fill="#1ae5be"/><path d="m350.783 114a6 6 0 0 0 0 12h7.795a6 6 0 0 0 0-12z" fill="#1ae5be"/><path d="m324.592 114h-7.792a6 6 0 0 0 0 12h7.794a6 6 0 0 0 0-12z" fill="#1ae5be"/><path d="m405 148.428a6 6 0 0 0 -6 6v10.746a6 6 0 0 0 12 0v-10.746a6 6 0 0 0 -6-6z" fill="#1ae5be"/><path d="m336.451 186.166-8.6-6.448a6 6 0 1 0 -7.2 9.6l8.6 6.448a6 6 0 0 0 7.2-9.6z" fill="#1ae5be"/><path d="m295.938 74.331a6 6 0 0 0 8.4-1.2l6.448-8.6a6 6 0 1 0 -9.6-7.2l-6.449 8.6a6 6 0 0 0 1.201 8.4z" fill="#1ae5be"/></svg>